/* XPM */
static char *add[]={
"22 22 2 1",
". c None",
"X c #000000",
"......................",
"......................",
".........XXXX.........",
".........XXXX.........",
".........XXXX.........",
".........XXXX.........",
".........XXXX.........",
".........XXXX.........",
".........XXXX.........",
"..XXXXXXXXXXXXXXXXXX..",
"..XXXXXXXXXXXXXXXXXX..",
"..XXXXXXXXXXXXXXXXXX..",
"..XXXXXXXXXXXXXXXXXX..",
".........XXXX.........",
".........XXXX.........",
".........XXXX.........",
".........XXXX.........",
".........XXXX.........",
".........XXXX.........",
".........XXXX.........",
"......................",
"......................"};



