/* XPM */
static char *edit_undo[] = {
/* columns rows colors chars-per-pixel */
"22 22 81 1",
"  c #968503",
". c #978602",
"X c #A59007",
"o c #AE9307",
"O c #B59600",
"+ c #B39706",
"@ c #B69800",
"# c #B89A00",
"$ c #B89B00",
"% c #BA9A00",
"& c #BD9B00",
"* c #BD9C00",
"= c #BB9C07",
"- c #BC9D06",
"; c #B69A0B",
": c #B69F0C",
"> c #B59F17",
", c #BBA011",
"< c #BEA110",
"1 c #BAA712",
"2 c #B9A214",
"3 c #BEA514",
"4 c #BFAA1A",
"5 c #C4A000",
"6 c #C2A20C",
"7 c #C1A909",
"8 c #CDB80E",
"9 c #C2AC18",
"0 c #D2BD1D",
"q c #CEBC22",
"w c #C6B029",
"e c #CEB828",
"r c #D4BD24",
"t c #D6C004",
"y c #DAC003",
"u c #DFC203",
"i c #DAC304",
"p c #DAC404",
"a c #DFC10A",
"s c #DDC80D",
"d c #D5C015",
"f c #DAC612",
"g c #DEC917",
"h c #E0C70A",
"j c #E1CB0B",
"k c #EBD304",
"l c #F9DF05",
"z c #E1CC14",
"x c #E1CD1A",
"c c #E1CC1F",
"v c #E4CE1F",
"b c #E3D010",
"n c #E8D31C",
"m c #EFD91F",
"M c #F0D61D",
"N c #FAE006",
"B c #FAE216",
"V c #FAE31C",
"C c #FBE31F",
"Z c #E5D226",
"A c #EDD92C",
"S c #E9D532",
"D c #EFDB31",
"F c #EEDB3F",
"G c #F3DF34",
"H c #F0DF3C",
"J c #FBE425",
"K c #FBE52B",
"L c #FBE73D",
"P c #EADB41",
"I c #F1DF44",
"U c #F2DF47",
"Y c #F3E044",
"T c #F6E344",
"R c #FBE846",
"E c #FBE847",
"W c #F3E049",
"Q c #F3E14C",
"! c #FBE84E",
"~ c #F8E757",
"^ c None",
/* pixels */
"^^^^^^^^5^^^^^^^^^^^^^",
"^^^^^^^55^^^^^^^^^^^^^",
"^^^^^^5E5^^^^^^^^^^^^^",
"^^^^^5JK5^^^^^^^^^^^^^",
"^^^^5JT!55&O^^^^^^^^^^",
"^^^5JN~ECCMh#5^^^^^^^^",
"^^5JI~~~~~~Nlh5^^^^^^^",
"^5JIW~~~~UI8cky#^^^^^^",
"^^5JWYQS8u8iiim#@^^^^^",
"^^^5JvtJLLKnhjzw*^^^^^",
"^^^^6JiJ555:esx0=^^^^^",
"^^^^^5JJ5^^^3rgd;^^^^^",
"^^^^^^5E5^^^^2Zf-^^^^^",
"^^^^^^^55^^^^,Af;^^^^^",
"^^^^^^^^5^^^^:Dq+^^^^^",
"^^^^^^^^^^^^^>L7o^^^^^",
"^^^^^^^^^^^^^9PX^^^^^^",
"^^^^^^^^^^^^4b ^^^^^^^",
"^^^^^^^^^^^18 ^^^^^^^^",
"^^^^^^^^^^^^^^^^^^^^^^",
"^^^^^^^^^^^^^^^^^^^^^^",
"^^^^^^^^^^^^^^^^^^^^^^"
};
