/* XPM */
static char *edit_redo[] = {
/* columns rows colors chars-per-pixel */
"22 22 70 1",
"  c #788600",
". c #818B02",
"X c #808D00",
"o c #828804",
"O c #879002",
"+ c #8A9301",
"@ c #8F9803",
"# c #8D9B02",
"$ c #8C9D02",
"% c #8C9904",
"& c #8F9F10",
"* c #859119",
"= c #949F1E",
"- c #94A303",
"; c #96A405",
": c #A4B407",
"> c #A2B708",
", c #A2B709",
"< c #A4BA09",
"1 c #A8BE08",
"2 c #A2B316",
"3 c #A6BA1D",
"4 c #97A020",
"5 c #A7B432",
"6 c #A6B437",
"7 c #AAC108",
"8 c #B4C708",
"9 c #B2C910",
"0 c #B3C916",
"q c #B9D112",
"w c #BAD119",
"e c #BBD11D",
"r c #BACA29",
"t c #BCD120",
"y c #BCD124",
"u c #BED22C",
"i c #BFD336",
"p c #C0D52F",
"a c #AFB952",
"s c #BFCD46",
"d c #B8C559",
"f c #C0CF42",
"g c #C1D341",
"h c #C0D148",
"j c #C7D948",
"k c #C7D94A",
"l c #C7DA4A",
"z c #C1CF52",
"x c #C0CE5A",
"c c #C8DA50",
"v c #C8D65C",
"b c #CADA5A",
"n c #CCDC59",
"m c #CCDC5D",
"M c #CADA61",
"N c #CEDD66",
"B c #C7D36E",
"V c #CEDD68",
"C c #CEDD6B",
"Z c #CCD86C",
"A c #D1DF69",
"S c #D1DF6C",
"D c #C8D371",
"F c #CCD971",
"G c #D1DD77",
"H c #D3E271",
"J c #D5E277",
"K c #D5E084",
"L c #D7E385",
"P c None",
/* pixels */
"PPPPPPPPPPPP PPPPPPPPP",
"PPPPPPPPPPPP* PPPPPPPP",
"PPPPPPPPPPPP L PPPPPPP",
"PPPPPPPPPPPP Sc PPPPPP",
"PPPPPPPPP    Atk PPPPP",
"PPPPPPP 4aDLJHw7k PPPP",
"PPPPPP xM9qwtww><k PPP",
"PPPPP*Ckqwtwwy0><<A PP",
"PPPP@=Sewwwwwe7><j*PPP",
"PPPP*dupkcCNNm13k*PPPP",
"PPPP*Bih2    n3k PPPPP",
"PPPP Fg6XPPP Ak PPPPPP",
"PPPP GZ&PPPP b PPPPPPP",
"PPPP zv PPPP  PPPPPPPP",
"PPPP%5f PPPP PPPPPPPPP",
"PPPP+-s PPPPPPPPPPPPPP",
"PPPPP r$PPPPPPPPPPPPPP",
"PPPPPP 8@PPPPPPPPPPPPP",
"PPPPPPP :;PPPPPPPPPPPP",
"PPPPPPPPo.PPPPPPPPPPPP",
"PPPPPPPPPPPOPPPPPPPPPP",
"PPPPPPPPPPPPPPPPPPPPPP"
};
