/* XPM */
static char *empty_xpm[] = {
/* empty pixmap
 * width height ncolors chars_per_pixel */
"16 16 17 1 ",
/* colors */
"0 c black       m black         s s_black ",
"r c red4        m black         s s_darkred ",
"g c green4      m black         s s_darkgreen ",
"y c yellow4     m black         s s_darkyellow ",
"b c blue4       m black         s s_darkblue ",
"m c magenta4    m black         s s_darkmagenta ",
"c c cyan4       m black         s s_darkcyan ",
"a c gray50      m black         s s_darkgray ",
"A c gray75      m white         s s_gray ",
"R c red         m white         s s_red ",
"G c green       m white         s s_green ",
"Y c yellow      m white         s s_yellow ",
"B c blue        m white         s s_blue ",
"M c magenta     m white         s s_magenta ",
"C c cyan        m white         s s_cyan ",
"W c white       m white         s s_white ",
"  c none        m white         s none ",
/* pixels */
"AAAAAAAAAAAAAAA ",
"AaaaaaaaaaaaaWA ",
"AaAAAAAAAAAAAWA ",
"AaAAAAAAAAAAAWA ",
"AaAAAAAAAAAAAWA ",
"AaAAAAAAAAAAAWA ",
"AaAAAAAAAAAAAWA ",
"AaAAAAAAAAAAAWA ",
"AaAAAAAAAAAAAWA ",
"AaAAAAAAAAAAAWA ",
"AaAAAAAAAAAAAWA ",
"AaAAAAAAAAAAAWA ",
"AaAAAAAAAAAAAWA ",
"AaAAAAAAAAAAAWA ",
"AWWWWWWWWWWWWWA ",
"AAAAAAAAAAAAAAA "
};



