/* XPM */
static char * Frisius_xpm[] = {
"24 24 476 2",
"  	c #897A6D",
". 	c #82766B",
"+ 	c #766C61",
"@ 	c #776C62",
"# 	c #776B60",
"$ 	c #756A60",
"% 	c #766C60",
"& 	c #71695D",
"* 	c #7B7066",
"= 	c #736A5F",
"- 	c #6D635A",
"; 	c #706459",
"> 	c #6F6458",
", 	c #73695D",
"' 	c #72685D",
") 	c #70665D",
"! 	c #6E635A",
"~ 	c #6D6359",
"{ 	c #6E645A",
"] 	c #6C6259",
"^ 	c #6F655C",
"/ 	c #71675E",
"( 	c #746A61",
"_ 	c #8A7E73",
": 	c #7E7366",
"< 	c #786E62",
"[ 	c #796D61",
"} 	c #746A5E",
"| 	c #71685C",
"1 	c #786D61",
"2 	c #6C6459",
"3 	c #615A52",
"4 	c #6F645B",
"5 	c #6C635A",
"6 	c #5A524C",
"7 	c #5A524B",
"8 	c #645A52",
"9 	c #625950",
"0 	c #6A6058",
"a 	c #6C6257",
"b 	c #6F655B",
"c 	c #71665D",
"d 	c #6C6158",
"e 	c #70655D",
"f 	c #84796E",
"g 	c #776D62",
"h 	c #7E7468",
"i 	c #746A5F",
"j 	c #807569",
"k 	c #655D53",
"l 	c #524D48",
"m 	c #615C55",
"n 	c #7D7369",
"o 	c #87796F",
"p 	c #9C8C7E",
"q 	c #B7A594",
"r 	c #B2A18E",
"s 	c #B9A592",
"t 	c #A29382",
"u 	c #8C8073",
"v 	c #8B7E72",
"w 	c #776B62",
"x 	c #72665D",
"y 	c #7A6C62",
"z 	c #786A61",
"A 	c #7E7167",
"B 	c #887D72",
"C 	c #7D7266",
"D 	c #7F7469",
"E 	c #776C60",
"F 	c #84796D",
"G 	c #736960",
"H 	c #746962",
"I 	c #847A6E",
"J 	c #82776B",
"K 	c #8A7D71",
"L 	c #B5A493",
"M 	c #BEAB98",
"N 	c #AF9F8D",
"O 	c #A69686",
"P 	c #A89787",
"Q 	c #B7A493",
"R 	c #BFAC9A",
"S 	c #B5A394",
"T 	c #9B8B7F",
"U 	c #7B6E63",
"V 	c #7D7267",
"W 	c #7B6F66",
"X 	c #7D7268",
"Y 	c #84776D",
"Z 	c #847B6F",
"` 	c #7E7469",
" .	c #7A6F63",
"..	c #786D62",
"+.	c #9E9081",
"@.	c #908477",
"#.	c #6B6259",
"$.	c #72695E",
"%.	c #8D8074",
"&.	c #9F9082",
"*.	c #AFA08F",
"=.	c #BAA797",
"-.	c #B9A696",
";.	c #B8A795",
">.	c #B3A292",
",.	c #AC9A8C",
"'.	c #A49587",
").	c #7E7166",
"!.	c #7C6F64",
"~.	c #7A6F65",
"{.	c #7F746A",
"].	c #85756A",
"^.	c #8C8276",
"/.	c #72685C",
"(.	c #7B7064",
"_.	c #BFAC9B",
":.	c #D1BDAA",
"<.	c #C1B09C",
"[.	c #B8A596",
"}.	c #AF9F91",
"|.	c #A99A8B",
"1.	c #A59689",
"2.	c #AC9C8B",
"3.	c #A79688",
"4.	c #A9988A",
"5.	c #AD9B8C",
"6.	c #AA9A8B",
"7.	c #85796C",
"8.	c #83756C",
"9.	c #7B6D62",
"0.	c #7D7166",
"a.	c #837368",
"b.	c #87786D",
"c.	c #87786E",
"d.	c #86766D",
"e.	c #8C8074",
"f.	c #756B60",
"g.	c #70675C",
"h.	c #6F665C",
"i.	c #665D53",
"j.	c #6A6158",
"k.	c #665D54",
"l.	c #635A53",
"m.	c #5C534F",
"n.	c #59514B",
"o.	c #7A6D63",
"p.	c #948679",
"q.	c #AD9D8C",
"r.	c #B4A291",
"s.	c #817468",
"t.	c #85796B",
"u.	c #7B6C61",
"v.	c #807167",
"w.	c #7C6D64",
"x.	c #7A6960",
"y.	c #82736A",
"z.	c #8A7D6F",
"A.	c #857A6E",
"B.	c #7C7265",
"C.	c #7F7569",
"D.	c #81766A",
"E.	c #7C7266",
"F.	c #4F4844",
"G.	c #514944",
"H.	c #534A45",
"I.	c #625951",
"J.	c #83776B",
"K.	c #BAA897",
"L.	c #BDA998",
"M.	c #C2B09D",
"N.	c #B7A593",
"O.	c #B8A694",
"P.	c #86796D",
"Q.	c #817469",
"R.	c #7C6D61",
"S.	c #7B6F64",
"T.	c #75695E",
"U.	c #71655B",
"V.	c #776C61",
"W.	c #776E64",
"X.	c #7A7166",
"Y.	c #8B7F75",
"Z.	c #7F7367",
"`.	c #887D70",
" +	c #83796C",
".+	c #4A4640",
"++	c #4D4842",
"@+	c #564F48",
"#+	c #74695E",
"$+	c #686056",
"%+	c #938578",
"&+	c #988A7B",
"*+	c #97887A",
"=+	c #B9A695",
"-+	c #B3A192",
";+	c #85786C",
">+	c #86796E",
",+	c #8E8072",
"'+	c #76695F",
")+	c #6B6158",
"!+	c #74675E",
"~+	c #7E7168",
"{+	c #756B62",
"]+	c #6E645C",
"^+	c #7D7468",
"/+	c #776F63",
"(+	c #5B534C",
"_+	c #786C63",
":+	c #7E7369",
"<+	c #998C7D",
"[+	c #988A7E",
"}+	c #86796F",
"|+	c #9F9183",
"1+	c #928377",
"2+	c #8D7F74",
"3+	c #8F8175",
"4+	c #83756A",
"5+	c #796D63",
"6+	c #786E64",
"7+	c #71685E",
"8+	c #776B61",
"9+	c #71685F",
"0+	c #7E746A",
"a+	c #7D7365",
"b+	c #82766A",
"c+	c #746A60",
"d+	c #6F655D",
"e+	c #AC9C8C",
"f+	c #CAB7A3",
"g+	c #C6B4A1",
"h+	c #B8A697",
"i+	c #877B6E",
"j+	c #B7A595",
"k+	c #96857B",
"l+	c #7A6C63",
"m+	c #74695F",
"n+	c #796C61",
"o+	c #7C6F66",
"p+	c #7F7268",
"q+	c #756D63",
"r+	c #72695F",
"s+	c #776D63",
"t+	c #776E61",
"u+	c #7B7166",
"v+	c #645B53",
"w+	c #6B625A",
"x+	c #665D55",
"y+	c #82766C",
"z+	c #B19F90",
"A+	c #BCAA98",
"B+	c #766C62",
"C+	c #B3A190",
"D+	c #887A6E",
"E+	c #85786D",
"F+	c #7B6E65",
"G+	c #796B62",
"H+	c #7E7066",
"I+	c #8A7C71",
"J+	c #726860",
"K+	c #6C645A",
"L+	c #71675F",
"M+	c #716860",
"N+	c #796F64",
"O+	c #57524A",
"P+	c #5F5751",
"Q+	c #7F766C",
"R+	c #83776D",
"S+	c #B4A394",
"T+	c #B2A191",
"U+	c #B1A091",
"V+	c #A29082",
"W+	c #7E7267",
"X+	c #7E7065",
"Y+	c #7E7266",
"Z+	c #807369",
"`+	c #796C60",
" @	c #87796E",
".@	c #8C7E72",
"+@	c #786F67",
"@@	c #7A7168",
"#@	c #6E655C",
"$@	c #6B6257",
"%@	c #6B6359",
"&@	c #625A52",
"*@	c #4E4A43",
"=@	c #5B534E",
"-@	c #5F5750",
";@	c #625B54",
">@	c #776D64",
",@	c #9E8F82",
"'@	c #938478",
")@	c #8C7E74",
"!@	c #968579",
"~@	c #938376",
"{@	c #7E7368",
"]@	c #8A7E71",
"^@	c #7F7168",
"/@	c #85766C",
"(@	c #7D7066",
"_@	c #83756B",
":@	c #6F665E",
"<@	c #786E65",
"[@	c #70685E",
"}@	c #6D655C",
"|@	c #665F54",
"1@	c #635C55",
"2@	c #58534A",
"3@	c #544F49",
"4@	c #625952",
"5@	c #5C524E",
"6@	c #635A54",
"7@	c #73675F",
"8@	c #908577",
"9@	c #9A8B7D",
"0@	c #938579",
"a@	c #7A6F66",
"b@	c #887B70",
"c@	c #84766B",
"d@	c #807368",
"e@	c #83736A",
"f@	c #98897E",
"g@	c #796F67",
"h@	c #766B62",
"i@	c #70675D",
"j@	c #675E56",
"k@	c #665E54",
"l@	c #5A544D",
"m@	c #6B635A",
"n@	c #625C53",
"o@	c #605751",
"p@	c #58514B",
"q@	c #5D564E",
"r@	c #98897B",
"s@	c #C3B09D",
"t@	c #8A7D70",
"u@	c #524C48",
"v@	c #8D7E73",
"w@	c #84766A",
"x@	c #837469",
"y@	c #7D7065",
"z@	c #88786E",
"A@	c #7A7065",
"B@	c #766D63",
"C@	c #80766C",
"D@	c #776D65",
"E@	c #686258",
"F@	c #59534B",
"G@	c #5D564F",
"H@	c #5A544E",
"I@	c #807568",
"J@	c #645C56",
"K@	c #5D5650",
"L@	c #5F564E",
"M@	c #72675D",
"N@	c #524C46",
"O@	c #504943",
"P@	c #59524B",
"Q@	c #73695E",
"R@	c #7C7269",
"S@	c #5D554F",
"T@	c #5E564F",
"U@	c #958779",
"V@	c #746A62",
"W@	c #84776B",
"X@	c #524C47",
"Y@	c #534D47",
"Z@	c #4F4A45",
"`@	c #665D56",
" #	c #85776C",
".#	c #7A6E64",
"+#	c #796E64",
"@#	c #786D64",
"##	c #766C63",
"$#	c #A6988A",
"%#	c #AB9D8F",
"&#	c #685E56",
"*#	c #6F675B",
"=#	c #635C54",
"-#	c #756961",
";#	c #7D7569",
">#	c #645A51",
",#	c #564F49",
"'#	c #504A46",
")#	c #786F66",
"!#	c #665C55",
"~#	c #6E625B",
"{#	c #8B8075",
"]#	c #8C8076",
"^#	c #978C7F",
"/#	c #BFB0A0",
"(#	c #BAA99A",
"_#	c #988C7F",
":#	c #9A8E80",
"<#	c #655D54",
"[#	c #8B8072",
"}#	c #7C7167",
"|#	c #756B61",
"1#	c #6C6258",
"2#	c #554F4A",
"3#	c #94877B",
"4#	c #746960",
"5#	c #73685E",
"6#	c #766960",
"7#	c #82756A",
"8#	c #81756B",
"9#	c #8B7F74",
"0#	c #B6A799",
"a#	c #B9AA9A",
"b#	c #A59889",
"c#	c #AFA093",
"d#	c #BEAD9D",
"e#	c #AFA090",
"f#	c #8B8073",
"g#	c #8F8274",
"h#	c #8D7F73",
"i#	c #998B7D",
"j#	c #867A6E",
"k#	c #615951",
"l#	c #97897D",
"m#	c #97887B",
"n#	c #766961",
"o#	c #82746A",
"p#	c #C3B3A2",
"q#	c #B9A998",
"r#	c #B8A898",
"s#	c #B9A999",
"t#	c #BDAD9C",
"u#	c #B0A090",
"v#	c #655C53",
"w#	c #7E736A",
"x#	c #786E63",
"y#	c #6D645A",
"z#	c #877C6F",
"A#	c #5C534B",
"B#	c #685F58",
"C#	c #897C72",
"D#	c #A39385",
"E#	c #B4A292",
"F#	c #B6A493",
"G#	c #7C6E65",
"H#	c #81726A",
"I#	c #B6A797",
"J#	c #BEAF9F",
"K#	c #A59688",
"L#	c #B6A695",
"M#	c #BAAA99",
"N#	c #AA9C8C",
"O#	c #A8998A",
"P#	c #84776C",
"Q#	c #867C71",
"R#	c #908377",
"S#	c #A49485",
"T#	c #BBA99A",
"U#	c #8A7C72",
"V#	c #A09082",
"W#	c #746861",
"X#	c #C6B6A7",
"Y#	c #B7A999",
"Z#	c #AD9F91",
"`#	c #8A7F74",
" $	c #AC9D90",
".$	c #AB9C8D",
"+$	c #AB9C8E",
"@$	c #9B8D7F",
"#$	c #58514A",
"$$	c #96877C",
"%$	c #696057",
"&$	c #A59488",
"*$	c #756A5F",
"=$	c #5E554E",
"-$	c #918579",
";$	c #B0A091",
">$	c #C9B6A6",
",$	c #A69789",
"'$	c #6A6057",
")$	c #998A7D",
"  . + @ # $ % & * = - ; > , ' + ) ! ~ { ] ^ / ( ",
"_ : < [ } | 1 2 3 4 5 6 7 8 9 0 a ^ b ) c - d e ",
"f g h i h j k l m n o p q r s t u v w @ x y z A ",
"B C D E F G H I J K L M N O P Q R S T U V W X Y ",
"Z `  ...+.@.#.$.%.&.*.q =.-.;.>.,.'.).!.~.{.!.].",
"^.X /.(._.:.<.[.}.|.1.2.3.4.5.6.7.8.9.0.a.b.c.d.",
"e.v j f.g.h.i.j.k.l.m.n.j.o.p.q.r.s.t.u.v.w.x.y.",
"z.A.B.C.D.E.F.G.H.0 I.J.K.L.M.N.O.P.Q.R.S.T.U.V.",
"W.X.Y.Z.`. +.+++@+#+$+%+&+*+=+-+;+>+,+Q.'+)+!+~+",
"{+^ ]+* ^+/+(+l._+:+<+[+}+|+. 1+2+3+4+5+6+7+8+# ",
"9+G #.0+a+b+c+d+D...e+f+g+h+i+j+R k+l+..m+n+o+p+",
"7+q+r+s+{.t+u+v+w+x+y+z+j+A+B+C+N.D+E+S.F+G+H+I+",
"7+J+K+L+M+N+i O+P+v+Q+R+S+T+P+U+V+W+X+Y+Z+`+ @.@",
"+@9+@@#@$@%@&@*@=@-@;@>@,@'@)@!@~@{@]@^@/@(@_@_@",
":@<@[@}@|@v+1@2@3@4@5@6@7@8@9@0@a@b@J.c@d@o e@f@",
"g@h@i@5 j@k@l@m@n@o@p@p@q@r@s@t@u@v@w@x@b+y@ @z@",
"A@B@C@D@E@F@G@H@I@[@J@l@K@L@M@N@O@P@P.V V Q@o+n ",
"<@R@W.h.S@n.q@T@q@U@V@m@d@W@$ X@Y@Z@`@ #s..#Z++#",
"@###5 >@$#%#&#*#%@=#^ q@-#;#>#,#'#)#!#~#y@d@Q.(@",
"a@{#]#^#/#(#_#:#<#b ( [#}#|#1#2#V.3#4#W 5#6#7#8#",
"9#0#a#b#c#d#e#f#g#h#|#i#j#1 %+6 k###l#P.m#(@n#o#",
"$#p#q#r#s#t#u#U@v#w#k x#y#z#b@A#B#}#C#D#E#F#G#H#",
"I#J#K#L#M#N#t#O#b+P#Q#R#S#B+9@-@w u+S+T#-+U#V#W#",
"X#Y#Z#`# $.$+$.$@$#$$$%$&$*$. =$%$-$;$>$,$'$5+)$"};
