/* XPM */
static char *move[]={
"22 22 3 1",
". c None",
"X c #777777",
"# c #0000ff",
"......................",
"..........##..........",
".........####.........",
"........######........",
"..........##..........",
"..........##..........",
"..........##..........",
"..........##..........",
"...#..............#...",
"..##.....XXXX.....##..",
".#######.XXXX.#######.",
".#######.XXXX.#######.",
"..##.....XXXX.....##..",
"...#,.............#...",
"..........##..........",
"..........##..........",
"..........##..........",
"..........##..........",
"........######........",
".........####.........",
"..........##..........",
"......................"};



