/* XPM */
static char *remove[]={
"22 22 2 1",
". c None",
"# c #ff0000",
"......................",
"......................",
"..###............###..",
"..####..........####..",
"..#####........#####..",
"...#####......#####...",
"....#####....#####....",
".....#####..#####.....",
"......##########......",
".......########.......",
"........######........",
"........######........",
".......########.......",
"......##########......",
".....#####..#####.....",
"....#####....#####....",
"...#####......#####...",
"..#####........#####..",
"..####..........####..",
"..###............###..",
"......................",
"......................"};



