/* XPM */
static char *reverse[]={
"22 22 4 1",
". c None",
"X c #777777",
"# c #000000",
"| c #777777",
"......................",
"......................",
"......................",
"................#.....",
"................##....",
"..........#########...",
"........############..",
".......############...",
"......###|......##....",
".....###|.......#.....",
".....###..............",
"....###...............",
"....###...............",
"....###...............",
"....###...............",
"....###...............",
"....###...............",
"..#######.............",
"...#####..............",
"....###...............",
".....#................",
"......................",
"......................"};



