/* XPM */
static char *small_remove[]={
"11 10 2 1",
". c None",
"# c #ff0000",
"...........",
".##.....##.",
"..##...##..",
"...##.##...",
"....###....",
"....###....",
"...##.##...",
"..##...##..",
".##.....##.",
"..........."};



