<?xml version="1.0" encoding="UTF-8" standalone="no"?>
<!-- Created with Inkscape (http://www.inkscape.org/) -->

<svg
   xmlns:dc="http://purl.org/dc/elements/1.1/"
   xmlns:cc="http://creativecommons.org/ns#"
   xmlns:rdf="http://www.w3.org/1999/02/22-rdf-syntax-ns#"
   xmlns:svg="http://www.w3.org/2000/svg"
   xmlns="http://www.w3.org/2000/svg"
   xmlns:xlink="http://www.w3.org/1999/xlink"
   version="1.1"
   width="48"
   height="48"
   viewBox="0 0 48 48"
   id="svg1"
   xml:space="preserve"><metadata
   id="metadata28"><rdf:RDF><cc:Work
       rdf:about=""><dc:format>image/svg+xml</dc:format><dc:type
         rdf:resource="http://purl.org/dc/dcmitype/StillImage" /><dc:title></dc:title></cc:Work></rdf:RDF></metadata>
<defs
   id="defs3">
	
	
		

	
	
	
	
	
	
	
	
	
	
	
	
	
	
	
	

		
			
		
	<linearGradient
   id="linearGradient4114"><stop
     id="stop4116"
     style="stop-color:#000000;stop-opacity:1"
     offset="0" /><stop
     id="stop4118"
     style="stop-color:#000000;stop-opacity:0"
     offset="1" /></linearGradient><linearGradient
   id="linearGradient3962"><stop
     id="stop3964"
     style="stop-color:#d3e9ff;stop-opacity:1"
     offset="0" /><stop
     id="stop4134"
     style="stop-color:#d3e9ff;stop-opacity:1"
     offset="0.15517241" /><stop
     id="stop4346"
     style="stop-color:#4074ae;stop-opacity:1"
     offset="0.75" /><stop
     id="stop3966"
     style="stop-color:#36486c;stop-opacity:1"
     offset="1" /></linearGradient><radialGradient
   cx="11.826907"
   cy="10.476453"
   r="32.664848"
   fx="11.826907"
   fy="10.476453"
   id="radialGradient4356"
   xlink:href="#linearGradient4350"
   gradientUnits="userSpaceOnUse"
   gradientTransform="scale(1.179536,0.847791)" /><linearGradient
   id="linearGradient4350"><stop
     id="stop4352"
     style="stop-color:#ffffff;stop-opacity:1"
     offset="0" /><stop
     id="stop4354"
     style="stop-color:#ffffff;stop-opacity:0"
     offset="1" /></linearGradient><radialGradient
   cx="15.115514"
   cy="63.965389"
   r="12.289036"
   fx="15.115514"
   fy="63.965389"
   id="radialGradient3993"
   xlink:href="#linearGradient4114"
   gradientUnits="userSpaceOnUse"
   gradientTransform="scale(1.64399,0.608276)" /></defs>

<path
   d="m 45.052803,38.908627 a 20.203051,7.4751287 0 1 1 -40.4061012,0 20.203051,7.4751287 0 1 1 40.4061012,0 z"
   transform="matrix(1.104732,0,0,1.3734514,-2.9783789,-14.517628)"
   id="path4112"
   style="fill:url(#radialGradient3993);fill-opacity:1;stroke:none" /><path
   d="m 45.585477,22.775815 c 0,11.831368 -9.591397,21.422657 -21.421138,21.422657 -11.830824,0 -21.4216795,-9.591397 -21.4216795,-21.422657 0,-11.830826 9.5908555,-21.4211375 21.4216795,-21.4211375 11.829741,0 21.421138,9.5903115 21.421138,21.4211375 l 0,0 z"
   id="path3214"
   style="fill:#4074ae;fill-opacity:1;fill-rule:nonzero;stroke:#39396c;stroke-width:1.10473204;stroke-miterlimit:4;stroke-opacity:1" /><path
   d="m 24.143263,46.763994 h -0.01035 C 11.361922,46.763994 0.96848257,36.364276 0.963553,23.58145 0.96125352,17.372324 3.3693702,11.547802 7.7444049,7.1660304 12.119933,2.7847391 17.938195,0.37038155 24.127821,0.36813801 c 12.780853,0 23.175114,10.39971799 23.179551,23.18302499 0.0027,6.208645 -2.405818,12.033166 -6.780853,16.414938 -4.37487,4.381772 -10.193625,6.79597 -16.383252,6.797893 l 0,0 z M 24.136033,3.2336051 C 18.704417,3.2353679 13.605386,5.3510156 9.770966,9.1916164 5.9365459,13.031576 3.8255198,18.136566 3.8278203,23.565745 3.8319283,34.78355 12.940709,43.898206 24.132911,43.898206 v 1.432814 l 0.0094,-1.432814 c 5.424386,-0.0018 10.523581,-2.117089 14.358002,-5.958011 3.83442,-3.83996 5.944953,-8.944468 5.943146,-14.373648 C 44.439809,12.348422 35.330042,3.2336051 24.136033,3.2336051 l 0,0 z"
   id="path11" /><path
   d="m 23.18511,1.9315571 c 0,0 -6.172209,2.5169189 -6.298407,21.8024529 -0.126691,19.285694 6.932192,21.589798 6.932192,21.589798"
   id="path4042"
   style="fill:none;stroke:#000000;stroke-width:0.16227356" /><path
   d="m 23.18511,1.9315571 c 0,0 19.014517,2.4725291 18.887333,21.7582229 C 41.946244,42.975795 23.81873,45.323969 23.81873,45.323969"
   id="path7092"
   style="fill:none;stroke:#000000;stroke-width:0.16227356" /><path
   d="m 23.18511,1.9315571 c 0,0 6.803363,2.598327 6.677002,21.8840209 -0.12702,19.285695 -6.043382,21.508391 -6.043382,21.508391"
   id="path7093"
   style="fill:none;stroke:#000000;stroke-width:0.16227356" /><path
   d="m 23.18511,1.9315571 c 0,0 -17.2794564,2.2271832 -17.4056546,21.5128779 C 5.6524356,42.73045 23.81873,45.323969 23.81873,45.323969"
   id="path7094"
   style="fill:none;stroke:#000000;stroke-width:0.16227356" /><path
   d="m 23.18511,1.9315571 c 0,0 12.676673,2.2254204 12.54949,21.5109549 -0.12702,19.286015 -11.91587,21.881296 -11.91587,21.881296"
   id="path7095"
   style="fill:none;stroke:#000000;stroke-width:0.16227356" /><path
   d="m 23.18511,1.9315571 c 0,0 -12.782167,2.312277 -12.909351,21.5978109 -0.12702,19.285214 13.542971,21.79444 13.542971,21.79444"
   id="path7096"
   style="fill:none;stroke:#000000;stroke-width:0.16227356" /><path
   d="m 23.18511,1.9315571 c 0,0 0.380402,1.8545971 0.253382,21.1402919 -0.126198,19.286015 0.380403,22.25212 0.380403,22.25212"
   id="path7097"
   style="fill:none;stroke:#000000;stroke-width:0.16227356" /><path
   d="m 15.452678,3.6625999 c 0,0 0.5066,2.8433523 7.859452,2.8433523 7.35203,0 9.507259,-2.5960834 9.507259,-2.5960834"
   id="path7107"
   style="fill:none;stroke:#000000;stroke-width:0.16227356" /><path
   d="m 8.318208,8.7313725 c 0,0 0.3606836,4.3268055 14.881526,4.3268055 14.519036,0 17.26056,-4.0795365 17.007342,-3.9559822"
   id="path7108"
   style="fill:none;stroke:#000000;stroke-width:0.16227356" /><path
   d="m 4.6699631,13.799985 c 0,0 1.6777128,5.56299 18.6421669,5.56299 16.964783,0 20.416171,-5.068612 20.416171,-5.068612"
   id="path7109"
   style="fill:none;stroke:#000000;stroke-width:0.16227356" /><path
   d="m 2.6562147,20.599319 c 0,0 2.7747168,4.573434 20.9620443,4.573434 18.187327,0 21.997756,-4.326325 21.997756,-4.326325"
   id="path7110"
   style="fill:none;stroke:#000000;stroke-width:0.16227356" /><path
   d="m 2.6562147,25.667932 c 0,0 2.6449036,5.192327 20.7786623,5.192327 18.132774,0 22.054119,-4.945058 22.054119,-4.945058"
   id="path7111"
   style="fill:none;stroke:#000000;stroke-width:0.16227356" /><path
   d="m 3.9109664,31.107368 c 0,0 2.5678373,4.821503 19.5855306,4.821503 17.016708,0 20.610399,-4.574395 20.610399,-4.574395"
   id="path7112"
   style="fill:none;stroke:#000000;stroke-width:0.16227356" /><path
   d="m 6.672209,36.423249 c 0,0 2.1570359,4.20277 16.890017,4.20277 14.732981,0 17.909461,-3.955501 17.909461,-3.955501"
   id="path7113"
   style="fill:none;stroke:#000000;stroke-width:0.16227356" /><path
   d="m 10.687382,40.378751 c 0,0 1.796352,3.956462 13.128554,3.956462 11.333189,0 13.640578,-3.709194 13.640578,-3.709194"
   id="path7114"
   style="fill:none;stroke:#000000;stroke-width:0.16227356" />
</svg>