<?xml version="1.0" encoding="UTF-8" standalone="no"?>
<!-- Generator: Adobe Illustrator 14.0.0, SVG Export Plug-In . SVG Version: 6.00 Build 43363)  -->

<svg
   xmlns:dc="http://purl.org/dc/elements/1.1/"
   xmlns:cc="http://creativecommons.org/ns#"
   xmlns:rdf="http://www.w3.org/1999/02/22-rdf-syntax-ns#"
   xmlns:svg="http://www.w3.org/2000/svg"
   xmlns="http://www.w3.org/2000/svg"
   xmlns:xlink="http://www.w3.org/1999/xlink"
   xmlns:sodipodi="http://sodipodi.sourceforge.net/DTD/sodipodi-0.dtd"
   xmlns:inkscape="http://www.inkscape.org/namespaces/inkscape"
   version="1.1"
   id="svg1"
   sodipodi:version="0.32"
   inkscape:version="0.48.0 r9654"
   sodipodi:docname="semperWeb-big.svg"
   inkscape:output_extension="org.inkscape.output.svg.inkscape"
   x="0px"
   y="0px"
   width="100"
   height="100"
   viewBox="0 0 99.999999 100"
   xml:space="preserve"><metadata
   id="metadata28"><rdf:RDF><cc:Work
       rdf:about=""><dc:format>image/svg+xml</dc:format><dc:type
         rdf:resource="http://purl.org/dc/dcmitype/StillImage" /></cc:Work></rdf:RDF></metadata>
<defs
   id="defs3">
	
	
		<inkscape:perspective
   id="perspective28"
   inkscape:persp3d-origin="372.04724 : 350.78739 : 1"
   inkscape:vp_z="744.09448 : 526.18109 : 1"
   inkscape:vp_y="0 : 1000 : 0"
   inkscape:vp_x="0 : 526.18109 : 1"
   sodipodi:type="inkscape:persp3d">
		</inkscape:perspective>

	
	
	
	
	
	
	
	
	
	
	
	
	
	
	
	

		
			
		
	<radialGradient
   inkscape:collect="always"
   xlink:href="#linearGradient4114"
   id="radialGradient4120"
   gradientTransform="scale(1.64399,0.608276)"
   cx="15.115514"
   cy="63.965389"
   fx="15.115514"
   fy="63.965389"
   r="12.289036"
   gradientUnits="userSpaceOnUse" /><linearGradient
   inkscape:collect="always"
   id="linearGradient4114"><stop
     stop-color="#000000"
     stop-opacity="1"
     offset="0"
     id="stop4116" /><stop
     stop-color="#000000"
     stop-opacity="0"
     offset="1"
     id="stop4118" /></linearGradient><radialGradient
   inkscape:collect="always"
   xlink:href="#linearGradient3962"
   id="radialGradient3968"
   gradientTransform="scale(0.999989,1.000011)"
   cx="18.247644"
   cy="15.716079"
   fx="18.247644"
   fy="15.716079"
   r="29.993349"
   gradientUnits="userSpaceOnUse" /><linearGradient
   id="linearGradient3962"><stop
     stop-color="#d3e9ff"
     stop-opacity="1.0000000"
     offset="0.0000000"
     id="stop3964" /><stop
     stop-color="#d3e9ff"
     stop-opacity="1.0000000"
     offset="0.15517241"
     id="stop4134" /><stop
     stop-color="#4074ae"
     stop-opacity="1.0000000"
     offset="0.75000000"
     id="stop4346" /><stop
     stop-color="#36486c"
     stop-opacity="1.0000000"
     offset="1.0000000"
     id="stop3966" /></linearGradient><radialGradient
   inkscape:collect="always"
   xlink:href="#linearGradient4350"
   id="radialGradient4356"
   gradientTransform="scale(1.179536,0.847791)"
   cx="11.826907"
   cy="10.476453"
   fx="11.826907"
   fy="10.476453"
   r="32.664848"
   gradientUnits="userSpaceOnUse" /><linearGradient
   inkscape:collect="always"
   id="linearGradient4350"><stop
     stop-color="#ffffff"
     stop-opacity="1"
     offset="0"
     id="stop4352" /><stop
     stop-color="#ffffff"
     stop-opacity="0"
     offset="1"
     id="stop4354" /></linearGradient><radialGradient
   r="32.664848"
   fy="10.476453"
   fx="11.826907"
   cy="10.476453"
   cx="11.826907"
   gradientTransform="scale(1.179536,0.847791)"
   gradientUnits="userSpaceOnUse"
   id="radialGradient3188"
   xlink:href="#linearGradient4350"
   inkscape:collect="always" /></defs>
<sodipodi:namedview
   id="base"
   inkscape:window-y="-8"
   inkscape:window-x="-8"
   inkscape:window-height="745"
   inkscape:window-width="1360"
   inkscape:current-layer="svg1"
   inkscape:pageshadow="2"
   inkscape:pageopacity="0.0"
   inkscape:zoom="3.138402"
   showgrid="false"
   borderopacity="1.0"
   bordercolor="#666666"
   inkscape:cy="21.004812"
   pagecolor="#ffffff"
   inkscape:cx="29.513245"
   inkscape:window-maximized="0">
	</sodipodi:namedview>
<g
   transform="matrix(2.2367403,0,0,2.2367403,-4.7872027,-4.8196743)"
   id="g3155"><path
     style="fill:url(#radialGradient4120);fill-opacity:1;stroke:none"
     transform="matrix(1,0,0,1.243244,0,-10.27241)"
     d="m 45.052803,38.908627 c 0,4.128399 -9.045214,7.475128 -20.203051,7.475128 -11.157836,0 -20.2030502,-3.346729 -20.2030502,-7.475128 0,-4.1284 9.0452142,-7.475129 20.2030502,-7.475129 11.157837,0 20.203051,3.346729 20.203051,7.475129 z"
     sodipodi:ry="7.4751287"
     sodipodi:rx="20.203051"
     sodipodi:cy="38.908627"
     sodipodi:cx="24.849752"
     id="path4112"
     sodipodi:type="arc" /><path
     style="fill:url(#radialGradient3968);fill-opacity:1;fill-rule:nonzero;stroke:#39396c;stroke-miterlimit:4;stroke-opacity:1"
     inkscape:connector-curvature="0"
     id="path3214"
     d="m 43.959853,23.485499 c 0,10.709718 -8.682103,19.391723 -19.390348,19.391723 -10.709226,0 -19.3908387,-8.682103 -19.3908387,-19.391723 0,-10.709227 8.6816127,-19.3903473 19.3908387,-19.3903473 10.708245,0 19.390348,8.6811203 19.390348,19.3903473 l 0,0 z"
     stroke-miterlimit="4.0000000" /><path
     style="opacity:0.42159382;fill:url(#radialGradient3188);fill-opacity:1;stroke:none"
     transform="matrix(0.835938,0,0,1,9.886868,0)"
     d="m 30.708637,15.271057 c 0,5.132605 -5.788937,9.293404 -12.929952,9.293404 -7.141016,0 -12.929953,-4.160799 -12.929953,-9.293404 0,-5.132605 5.788937,-9.2934035 12.929953,-9.2934035 7.141015,0 12.929952,4.1607985 12.929952,9.2934035 z"
     sodipodi:ry="9.2934036"
     sodipodi:rx="12.929953"
     sodipodi:cy="15.271057"
     sodipodi:cx="17.778685"
     id="path4348"
     sodipodi:type="arc" /></g><g
   id="g3043"
   transform="matrix(1.7372186,0,0,1.7372186,14.822334,7.6227609)"><path
     inkscape:connector-curvature="0"
     id="path11"
     d="m 20.321791,51.033973 h -0.01206 c -14.8843148,0 -26.9976422,-12.120645 -27.0033875,-27.018751 -0.00268,-7.236601 2.8039276,-14.0249541 7.9029354,-19.1318142 5.0995823,-5.10629969 11.8806401,-7.9201809 19.0945151,-7.9227957 14.895806,0 27.010091,12.1206448 27.015262,27.0193109 0.0031,7.236041 -2.803928,14.024394 -7.902936,19.131254 -5.098816,5.10686 -11.880448,7.920555 -19.094324,7.922796 l 0,0 z M 20.313365,0.30025169 C 13.982935,0.30230616 8.040125,2.7680475 3.5711918,7.2441843 -0.89774147,11.719574 -3.3580965,17.669328 -3.3554153,23.996919 -3.3506275,37.071026 7.2654588,47.69396 20.309726,47.69396 v 1.669913 l 0.01092,-1.669913 C 26.64265,47.69186 32.585651,45.226538 37.054585,40.750027 41.523518,36.274638 43.983298,30.325444 43.981192,23.997853 43.976974,10.923372 33.359739,0.30025169 20.313365,0.30025169 l 0,0 z" /><path
     id="path4042"
     sodipodi:nodetypes="ccc"
     d="m 19.205085,-1.2172569 c 0,0 -7.193575,2.9334142 -7.340656,25.4102849 -0.147656,22.477057 8.079318,25.16244 8.079318,25.16244"
     inkscape:connector-curvature="0"
     style="fill:none;stroke:#000000;stroke-width:0.1891263" /><path
     id="path7092"
     sodipodi:nodetypes="ccc"
     d="m 19.205085,-1.2172569 c 0,0 22.161006,2.8816788 22.012776,25.3587359 C 41.070779,46.61891 19.943555,49.355655 19.943555,49.355655"
     inkscape:connector-curvature="0"
     style="fill:none;stroke:#000000;stroke-width:0.1891263" /><path
     id="path7093"
     sodipodi:nodetypes="ccc"
     d="m 19.205085,-1.2172569 c 0,0 7.929172,3.0282935 7.7819,25.5053509 -0.148039,22.477057 -7.04343,25.067561 -7.04343,25.067561"
     inkscape:connector-curvature="0"
     style="fill:none;stroke:#000000;stroke-width:0.1891263" /><path
     id="path7094"
     sodipodi:nodetypes="ccc"
     d="m 19.205085,-1.2172569 c 0,0 -20.13883073,2.5957335 -20.285912,25.0727909 -0.1480388,22.477431 21.024382,25.500121 21.024382,25.500121"
     inkscape:connector-curvature="0"
     style="fill:none;stroke:#000000;stroke-width:0.1891263" /><path
     id="path7095"
     sodipodi:nodetypes="ccc"
     d="m 19.205085,-1.2172569 c 0,0 14.774387,2.593679 14.626157,25.0705499 -0.148039,22.477431 -13.887687,25.502175 -13.887687,25.502175"
     inkscape:connector-curvature="0"
     style="fill:none;stroke:#000000;stroke-width:0.1891263" /><path
     id="path7096"
     sodipodi:nodetypes="ccc"
     d="m 19.205085,-1.2172569 c 0,0 -14.897338,2.6949085 -15.0455683,25.1717789 C 4.0114779,46.431019 19.943555,49.355468 19.943555,49.355468"
     inkscape:connector-curvature="0"
     style="fill:none;stroke:#000000;stroke-width:0.1891263" /><path
     id="path7097"
     sodipodi:nodetypes="ccc"
     d="m 19.205085,-1.2172569 c 0,0 0.44335,2.16149255 0.295311,24.6385499 -0.147081,22.477431 0.443351,25.934362 0.443351,25.934362"
     inkscape:connector-curvature="0"
     style="fill:none;stroke:#000000;stroke-width:0.1891263" /><path
     id="path7107"
     d="m 10.193103,0.80023576 c 0,0 0.590432,3.31386524 9.160021,3.31386524 8.568631,0 11.080503,-3.0256787 11.080503,-3.0256787"
     inkscape:connector-curvature="0"
     style="fill:none;stroke:#000000;stroke-width:0.1891263" /><path
     id="path7108"
     sodipodi:nodetypes="ccc"
     d="m 1.8780339,6.70778 c 0,0 0.4203689,5.042798 17.3440951,5.042798 16.92162,0 20.116807,-4.7546114 19.821687,-4.6106115"
     inkscape:connector-curvature="0"
     style="fill:none;stroke:#000000;stroke-width:0.1891263" /><path
     id="path7109"
     sodipodi:nodetypes="ccc"
     d="m -2.3739162,12.615138 c 0,0 1.95533783,6.483543 21.7270402,6.483543 19.772085,0 23.794603,-5.907357 23.794603,-5.907357"
     inkscape:connector-curvature="0"
     style="fill:none;stroke:#000000;stroke-width:0.1891263" /><path
     id="path7110"
     sodipodi:nodetypes="ccc"
     d="m -4.7208961,20.539614 c 0,0 3.2338721,5.330237 24.4308071,5.330237 21.196934,0 25.637906,-5.042237 25.637906,-5.042237"
     inkscape:connector-curvature="0"
     style="fill:none;stroke:#000000;stroke-width:0.1891263" /><path
     id="path7111"
     sodipodi:nodetypes="ccc"
     d="m -4.7208961,26.446972 c 0,0 3.0825776,6.051544 24.2170791,6.051544 21.133353,0 25.703596,-5.763358 25.703596,-5.763358"
     inkscape:connector-curvature="0"
     style="fill:none;stroke:#000000;stroke-width:0.1891263" /><path
     id="path7112"
     sodipodi:nodetypes="ccc"
     d="m -3.2585103,32.786516 c 0,0 2.99275853,5.619357 22.8265103,5.619357 19.832603,0 24.020971,-5.331358 24.020971,-5.331358"
     inkscape:connector-curvature="0"
     style="fill:none;stroke:#000000;stroke-width:0.1891263" /><path
     id="path7113"
     sodipodi:nodetypes="ccc"
     d="m -0.04034211,38.98206 c 0,0 2.51397841,4.898237 19.68494711,4.898237 17.170969,0 20.873088,-4.610051 20.873088,-4.610051"
     inkscape:connector-curvature="0"
     style="fill:none;stroke:#000000;stroke-width:0.1891263" /><path
     id="path7114"
     sodipodi:nodetypes="ccc"
     d="m 4.6392543,43.592111 c 0,0 2.0936096,4.611171 15.3010447,4.611171 13.208585,0 15.897797,-4.322985 15.897797,-4.322985"
     inkscape:connector-curvature="0"
     style="fill:none;stroke:#000000;stroke-width:0.1891263" /></g>
</svg>